<?xml version="1.0" standalone="no"?>
<!DOCTYPE svg PUBLIC "-//W3C//DTD SVG 20010904//EN"
 "http://www.w3.org/TR/2001/REC-SVG-20010904/DTD/svg10.dtd">
<svg version="1.0" xmlns="http://www.w3.org/2000/svg"
 width="48.000000pt" height="48.000000pt" viewBox="0 0 48.000000 48.000000"
 preserveAspectRatio="xMidYMid meet">
<metadata>
Created by potrace 1.16, written by Peter Selinger 2001-2019
</metadata>
<g transform="translate(0.000000,48.000000) scale(0.009375,-0.009375)"
fill="#000000" stroke="none">
<path d="M348 5017 l-188 -102 0 -599 0 -598 -47 -52 c-25 -28 -60 -80 -77
-116 l-31 -65 0 -1595 0 -1595 29 -60 c38 -77 124 -163 201 -201 l60 -29 860
0 860 0 57 28 c88 43 152 107 195 195 l38 76 3 628 3 628 507 0 c296 0 501 -4
492 -9 -8 -5 -157 -35 -330 -66 -346 -62 -397 -79 -450 -145 -107 -135 -66
-334 84 -412 80 -41 139 -37 661 50 271 46 505 90 536 101 38 15 106 61 220
152 90 72 180 138 199 147 19 8 77 17 127 20 l93 5 0 -87 0 -86 330 0 330 0 0
830 0 830 -330 0 -330 0 0 -86 0 -87 -92 5 c-51 3 -109 12 -128 20 -19 9 -98
66 -175 128 -77 62 -169 127 -205 144 l-65 31 -725 3 c-814 3 -779 6 -844 -70
-70 -81 -90 -162 -61 -247 l17 -52 -26 -20 c-14 -11 -38 -42 -54 -67 -23 -40
-27 -58 -27 -124 l0 -76 -46 -6 c-128 -17 -229 -163 -200 -288 l9 -38 -123 0
-123 0 -22 35 c-31 50 -122 128 -186 159 -201 98 -433 54 -584 -110 -179 -197
-170 -492 20 -683 146 -146 378 -183 560 -91 68 34 134 87 175 141 l37 49 114
0 114 0 0 -205 0 -205 -655 0 -655 0 0 745 0 745 655 0 655 0 0 -85 0 -85 85
0 85 0 0 165 0 165 -825 0 -825 0 0 -905 0 -905 825 0 825 0 0 285 0 285 80 0
80 0 0 -365 0 -365 -985 0 -985 0 0 1065 0 1065 905 0 905 0 0 85 0 85 -905 0
-905 0 0 143 c0 167 12 214 68 272 77 79 20 75 907 75 540 0 803 -4 830 -11
53 -14 136 -99 153 -155 6 -23 12 -87 12 -143 l0 -101 86 0 86 0 -4 138 c-3
129 -5 141 -34 203 -18 36 -52 88 -78 114 l-46 49 0 600 0 601 -189 103 c-104
56 -195 102 -202 102 -7 0 -76 -34 -153 -77 -78 -42 -145 -76 -151 -76 -5 0
-72 34 -148 77 -75 42 -144 76 -152 76 -8 0 -76 -34 -152 -76 -76 -42 -143
-77 -148 -77 -6 0 -74 34 -151 76 -78 43 -147 77 -155 77 -8 0 -98 -47 -201
-103z m352 -167 c81 -44 150 -80 153 -80 4 0 72 36 152 80 80 44 148 80 150
80 2 0 70 -36 150 -80 80 -44 148 -80 151 -80 3 0 73 36 155 81 l149 80 107
-59 108 -59 3 -514 2 -514 -825 0 -825 0 2 514 3 514 105 58 c58 32 107 59
109 59 2 0 70 -36 151 -80z m3059 -1981 c18 -7 101 -66 184 -132 203 -160 264
-187 433 -187 l74 0 0 -490 0 -490 -67 0 c-94 0 -175 -15 -236 -43 -29 -14
-122 -81 -208 -149 -89 -71 -176 -132 -200 -141 -70 -26 -957 -169 -1009 -164
-85 9 -119 95 -62 157 26 29 37 31 353 89 180 32 342 66 361 75 100 47 153
131 164 259 l7 77 -1172 0 -1172 0 -24 25 c-29 28 -33 80 -11 111 14 19 39 19
1028 24 l1013 5 3 83 3 82 -586 0 c-495 0 -590 2 -614 15 -46 24 -55 74 -20
119 l20 26 597 2 597 3 3 83 3 82 -471 0 -471 0 -24 25 c-33 32 -34 83 -2 113
23 22 27 22 493 24 l469 3 3 83 3 82 -431 0 -431 0 -24 25 c-16 15 -25 36 -25
55 0 19 9 40 25 55 l24 25 684 0 c482 0 694 -3 716 -11z m1181 -809 l0 -660
-160 0 -160 0 0 660 0 660 160 0 160 0 0 -660z m-3630 39 l64 -34 -104 -5
c-81 -4 -114 -11 -145 -27 -146 -78 -180 -271 -67 -388 52 -53 106 -74 214
-84 l93 -7 -69 -34 c-58 -28 -80 -33 -140 -33 -177 0 -313 128 -324 305 -12
204 135 354 338 345 63 -3 86 -9 140 -38z m830 -1580 c0 -83 -5 -159 -12 -183
-17 -56 -100 -141 -153 -155 -55 -15 -1584 -15 -1639 0 -21 6 -60 31 -87 56
-68 63 -79 103 -79 280 l0 143 985 0 985 0 0 -141z"/>
<path d="M500 4200 l0 -250 655 0 655 0 0 250 0 250 -655 0 -655 0 0 -250z
m1150 0 l0 -80 -495 0 -495 0 0 80 0 80 495 0 495 0 0 -80z"/>
<path d="M990 415 l0 -85 165 0 165 0 0 85 0 85 -165 0 -165 0 0 -85z"/>
<path d="M4021 5095 c-356 -78 -620 -336 -708 -691 -25 -104 -23 -304 5 -417
81 -327 330 -580 657 -668 117 -32 325 -32 450 -1 332 83 601 361 669 694 20
98 21 284 1 377 -74 353 -354 632 -707 705 -94 20 -278 20 -367 1z m342 -171
c214 -48 394 -188 497 -386 171 -328 62 -747 -248 -951 -404 -266 -944 -85
-1105 369 -148 417 106 875 538 969 84 19 233 18 318 -1z"/>
<path d="M4120 4691 l0 -88 -49 -31 c-72 -44 -111 -115 -111 -202 0 -83 23
-133 83 -186 47 -42 101 -64 154 -64 48 0 83 -34 83 -81 0 -49 -27 -79 -73
-79 -41 0 -73 22 -81 55 -6 24 -9 25 -86 25 l-80 0 0 -32 c1 -68 76 -173 139
-193 19 -6 21 -13 21 -101 l0 -95 83 3 82 3 3 91 c3 84 4 92 26 102 45 20 94
72 116 124 26 60 24 151 -3 205 -38 73 -116 124 -209 137 -57 9 -86 31 -94 73
-5 27 -1 37 24 63 17 17 41 30 55 30 31 0 77 -36 77 -61 0 -17 8 -19 85 -19
95 0 95 0 73 72 -13 45 -77 122 -119 144 -29 14 -29 15 -29 104 l0 90 -85 0
-85 0 0 -89z"/>
<path d="M3630 4205 l0 -85 80 0 80 0 0 85 0 85 -80 0 -80 0 0 -85z"/>
<path d="M4617 4283 c-4 -3 -7 -42 -7 -85 l0 -78 85 0 85 0 0 85 0 85 -78 0
c-43 0 -82 -3 -85 -7z"/>
<path d="M572 3378 l3 -83 85 0 85 0 3 83 3 82 -91 0 -91 0 3 -82z"/>
<path d="M902 3378 l3 -83 250 0 250 0 3 83 3 82 -256 0 -256 0 3 -82z"/>
<path d="M1562 3378 l3 -83 83 -3 82 -3 0 86 0 85 -85 0 -86 0 3 -82z"/>
</g>
</svg>
